<svg width="24.000000" height="24.000000" viewBox="0 0 24 24" fill="none" xmlns="http://www.w3.org/2000/svg" xmlns:xlink="http://www.w3.org/1999/xlink">
	<desc>
			Created with Pixso.
	</desc>
	<defs/>
	<path id="Vector" d="M23.04 0L0.95 0C0.42 0 0 0.42 0 0.95L0 23.04C0 23.57 0.42 24 0.95 24L23.04 24C23.57 24 24 23.57 24 23.04L24 0.95C24 0.42 23.57 0 23.04 0ZM20.26 7L18.35 7C16.84 7 16.55 7.71 16.55 8.76L16.55 11.08L20.14 11.08L19.67 14.7L16.55 14.7L16.55 24L12.81 24L12.81 14.7L9.68 14.7L9.68 11.08L12.81 11.08L12.81 8.41C12.81 5.31 14.7 3.62 17.47 3.62C18.8 3.62 19.93 3.72 20.27 3.76L20.27 7L20.26 7Z" fill="#335BF5" fill-opacity="1.000000" fill-rule="nonzero"/>
</svg>
