<svg width="23.983398" height="23.983765" viewBox="0 0 23.9834 23.9838" fill="none" xmlns="http://www.w3.org/2000/svg" xmlns:xlink="http://www.w3.org/1999/xlink">
	<desc>
			Created with Pixso.
	</desc>
	<defs/>
	<path id="Vector" d="M11.98 5.83C8.58 5.83 5.83 8.58 5.83 11.99C5.83 15.39 8.58 18.14 11.98 18.14C15.39 18.14 18.14 15.39 18.14 11.99C18.14 8.58 15.39 5.83 11.98 5.83ZM11.98 15.99C9.78 15.99 7.99 14.19 7.99 11.99C7.99 9.78 9.78 7.99 11.98 7.99C14.19 7.99 15.98 9.78 15.98 11.99C15.98 14.19 14.19 15.99 11.98 15.99ZM18.39 4.15C17.59 4.15 16.95 4.79 16.95 5.58C16.95 6.38 17.59 7.02 18.39 7.02C19.18 7.02 19.83 6.38 19.83 5.58C19.83 5.4 19.79 5.21 19.72 5.03C19.64 4.86 19.54 4.7 19.41 4.57C19.27 4.43 19.11 4.33 18.94 4.26C18.76 4.18 18.58 4.15 18.39 4.15ZM23.98 11.99C23.98 10.33 23.99 8.69 23.9 7.04C23.81 5.12 23.37 3.41 21.96 2.01C20.56 0.6 18.86 0.17 16.94 0.07C15.28 -0.02 13.64 0 11.99 0C10.33 0 8.69 -0.02 7.04 0.07C5.12 0.17 3.41 0.6 2.01 2.01C0.6 3.42 0.17 5.12 0.07 7.04C-0.02 8.69 0 10.33 0 11.99C0 13.64 -0.02 15.28 0.07 16.94C0.17 18.86 0.61 20.56 2.01 21.96C3.42 23.37 5.12 23.81 7.04 23.9C8.69 23.99 10.33 23.98 11.99 23.98C13.64 23.98 15.28 23.99 16.94 23.9C18.86 23.81 20.56 23.37 21.96 21.96C23.37 20.56 23.81 18.86 23.9 16.94C24 15.28 23.98 13.64 23.98 11.99ZM21.34 19.06C21.12 19.61 20.86 20.01 20.43 20.43C20.01 20.86 19.6 21.12 19.06 21.34C17.48 21.97 13.73 21.83 11.98 21.83C10.24 21.83 6.49 21.97 4.91 21.34C4.36 21.12 3.95 20.86 3.53 20.44C3.11 20.01 2.85 19.61 2.63 19.06C2 17.48 2.14 13.74 2.14 11.99C2.14 10.24 2 6.49 2.63 4.91C2.85 4.36 3.11 3.96 3.53 3.54C3.96 3.12 4.36 2.85 4.91 2.63C6.49 2.01 10.24 2.15 11.98 2.15C13.73 2.15 17.48 2.01 19.06 2.63C19.61 2.85 20.01 3.11 20.43 3.54C20.86 3.96 21.12 4.36 21.34 4.91C21.96 6.49 21.82 10.24 21.82 11.99C21.82 13.74 21.96 17.48 21.34 19.06Z" fill="#E61F5A" fill-opacity="1.000000" fill-rule="nonzero"/>
</svg>
