<svg width="23.973633" height="19.764648" viewBox="0 0 23.9736 19.7646" fill="none" xmlns="http://www.w3.org/2000/svg" xmlns:xlink="http://www.w3.org/1999/xlink">
	<desc>
			Created with Pixso.
	</desc>
	<defs/>
	<path id="Vector" d="M23.97 2.34C23.09 2.73 22.13 3.01 21.14 3.11C22.17 2.5 22.93 1.52 23.3 0.37C22.34 0.95 21.28 1.36 20.18 1.57C19.72 1.07 19.17 0.67 18.55 0.4C17.93 0.13 17.27 -0.01 16.59 0C13.87 0 11.68 2.23 11.68 4.98C11.68 5.37 11.73 5.75 11.8 6.13C7.73 5.91 4.09 3.93 1.67 0.91C1.23 1.67 1 2.54 1 3.42C1 5.16 1.87 6.68 3.19 7.58C2.41 7.55 1.65 7.33 0.97 6.94L0.97 7.01C0.97 9.43 2.66 11.44 4.91 11.9C4.49 12.01 4.05 12.07 3.62 12.07C3.3 12.07 2.99 12.04 2.69 11.99C3.31 13.97 5.12 15.41 7.28 15.45C5.59 16.79 3.48 17.58 1.18 17.58C0.77 17.58 0.39 17.57 0 17.52C2.17 18.94 4.76 19.76 7.54 19.76C16.58 19.76 21.52 12.16 21.52 5.57C21.52 5.35 21.52 5.14 21.51 4.92C22.46 4.21 23.3 3.33 23.97 2.34Z" fill="#21A6DF" fill-opacity="1.000000" fill-rule="nonzero"/>
</svg>
