<svg width="23.975586" height="17.646606" viewBox="0 0 23.9756 17.6466" fill="none" xmlns="http://www.w3.org/2000/svg" xmlns:xlink="http://www.w3.org/1999/xlink">
	<desc>
			Created with Pixso.
	</desc>
	<defs/>
	<path id="Vector" d="M23.46 2.75C23.33 2.22 23.06 1.73 22.69 1.34C22.32 0.95 21.86 0.67 21.35 0.53C19.48 0 11.98 0 11.98 0C11.98 0 4.48 0 2.62 0.53C2.11 0.67 1.65 0.95 1.28 1.34C0.9 1.73 0.64 2.22 0.5 2.75C0.15 4.75 -0.02 6.78 0 8.82C-0.02 10.85 0.15 12.88 0.5 14.89C0.64 15.42 0.9 15.91 1.28 16.3C1.65 16.69 2.11 16.97 2.62 17.11C4.48 17.64 11.98 17.64 11.98 17.64C11.98 17.64 19.48 17.64 21.35 17.11C21.86 16.97 22.32 16.69 22.69 16.3C23.06 15.91 23.33 15.42 23.46 14.89C23.81 12.88 23.98 10.85 23.97 8.82C23.98 6.78 23.81 4.75 23.46 2.75ZM9.59 12.6L9.59 5.04L15.81 8.82L9.59 12.6Z" fill="#E42F08" fill-opacity="1.000000" fill-rule="nonzero"/>
</svg>
