<svg width="48.000000" height="44.210449" viewBox="0 0 48 44.2104" fill="none" xmlns="http://www.w3.org/2000/svg" xmlns:xlink="http://www.w3.org/1999/xlink">
	<desc>
			Created with Pixso.
	</desc>
	<defs>
		<clipPath id="clip993_496">
			<rect id="clarity:users-line" rx="-0.500000" width="47.000000" height="43.210526" transform="translate(0.500000 0.500000)" fill="white" fill-opacity="0"/>
		</clipPath>
	</defs>
	<rect id="clarity:users-line" rx="-0.500000" width="47.000000" height="43.210526" transform="translate(0.500000 0.500000)" fill="#FFFFFF" fill-opacity="0"/>
	<g clip-path="url(#clip993_496)">
		<path id="Vector" d="M23.84 20.8C28.14 20.8 31.49 17.3 31.49 13.01C31.49 8.72 27.98 5.39 23.68 5.39C19.37 5.39 16.02 8.88 16.02 13.01C16.02 17.3 19.53 20.8 23.84 20.8ZM23.68 8.56C26.23 8.56 28.3 10.63 28.3 13.17C28.3 15.71 26.23 17.62 23.68 17.62C21.13 17.62 19.21 15.55 19.21 13.17C19.21 10.63 21.29 8.56 23.68 8.56Z" fill="#0D5C63" fill-opacity="1.000000" fill-rule="nonzero"/>
		<path id="Vector" d="M47.43 19.84C44.4 17.14 40.41 15.71 36.27 15.87L34.99 15.87C34.68 17.14 34.2 18.25 33.56 19.21C34.52 19.05 35.31 19.05 36.27 19.05C39.3 18.89 42.33 19.84 44.72 21.59L44.72 33.03L47.91 33.03L47.91 20.32L47.43 19.84Z" fill="#0D5C63" fill-opacity="1.000000" fill-rule="nonzero"/>
		<path id="Vector" d="M32.6 5.7C33.4 3.8 35.63 2.84 37.71 3.64C39.62 4.43 40.57 6.66 39.78 8.72C39.14 10.15 37.71 11.11 36.27 11.11C35.95 11.11 35.47 11.11 35.15 10.95C35.31 11.74 35.31 12.54 35.31 13.17L35.31 14.12C35.63 14.12 35.95 14.28 36.27 14.28C40.26 14.28 43.44 11.11 43.44 7.29C43.44 3.32 40.26 0.14 36.43 0.14C33.88 0.14 31.65 1.41 30.37 3.64C31.17 4.11 31.97 4.75 32.6 5.7Z" fill="#0D5C63" fill-opacity="1.000000" fill-rule="nonzero"/>
		<path id="Vector" d="M14.43 19.37C13.79 18.41 13.31 17.3 13 16.03L11.72 16.03C7.58 15.87 3.59 17.3 0.56 19.84L0.08 20.32L0.08 33.03L3.27 33.03L3.27 21.59C5.82 19.84 8.69 18.89 11.72 19.05C12.68 19.05 13.63 19.21 14.43 19.37Z" fill="#0D5C63" fill-opacity="1.000000" fill-rule="nonzero"/>
		<path id="Vector" d="M11.72 14.12C12.04 14.12 12.36 14.12 12.68 13.97L12.68 13.01C12.68 12.22 12.68 11.42 12.84 10.79C12.52 10.95 12.04 10.95 11.72 10.95C9.65 10.95 7.89 9.2 7.89 7.13C7.89 5.07 9.65 3.32 11.72 3.32C13.31 3.32 14.75 4.27 15.39 5.7C16.02 4.91 16.98 4.12 17.78 3.48C15.71 0.14 11.4 -0.97 8.05 1.1C4.7 3.16 3.59 7.45 5.66 10.79C6.94 12.85 9.17 14.12 11.72 14.12Z" fill="#0D5C63" fill-opacity="1.000000" fill-rule="nonzero"/>
		<path id="Vector" d="M36.91 29.38L36.59 28.9C33.4 25.4 28.94 23.34 24.15 23.5C19.37 23.34 14.75 25.4 11.56 28.9L11.24 29.38L11.24 41.45C11.24 42.88 12.36 44.15 13.95 44.15L34.36 44.15C35.79 44.15 37.07 42.88 37.07 41.45L37.07 29.38L36.91 29.38ZM33.72 40.98L14.43 40.98L14.43 30.49C16.98 27.95 20.49 26.68 24.15 26.68C27.66 26.52 31.17 27.95 33.72 30.49L33.72 40.98Z" fill="#0D5C63" fill-opacity="1.000000" fill-rule="nonzero"/>
	</g>
</svg>
