<svg width="47.875977" height="26.812012" viewBox="0 0 47.876 26.812" fill="none" xmlns="http://www.w3.org/2000/svg" xmlns:xlink="http://www.w3.org/1999/xlink">
	<desc>
			Created with Pixso.
	</desc>
	<defs/>
	<path id="Vector" d="M43.08 12.18C42.51 12.19 41.94 12.3 41.4 12.51L35.66 7.72C35.8 7.2 35.9 6.66 35.9 6.09C35.9 2.71 33.24 0 29.92 0C26.6 0 23.93 2.71 23.93 6.09C23.93 7.05 24.17 7.95 24.56 8.76L17.6 17.14C17.32 17.09 17.04 17.06 16.75 17.06C16.32 17.06 15.92 17.13 15.53 17.24L9.39 10.99C9.5 10.59 9.57 10.18 9.57 9.75C9.57 7.04 7.43 4.87 4.78 4.87C2.13 4.87 0 7.04 0 9.75C0 12.45 2.13 14.62 4.78 14.62C5.21 14.62 5.62 14.55 6.01 14.44L12.14 20.69C12.03 21.09 11.97 21.51 11.96 21.93C11.96 24.63 14.1 26.81 16.75 26.81C19.4 26.81 21.54 24.63 21.54 21.93C21.54 21.35 21.42 20.81 21.25 20.3L28.22 11.91C28.76 12.07 29.32 12.18 29.92 12.18C30.86 12.18 31.79 11.94 32.63 11.5L38.37 16.28C38.33 16.54 38.3 16.8 38.3 17.06C38.3 19.76 40.43 21.93 43.08 21.93C45.74 21.93 47.87 19.76 47.87 17.06C47.87 14.36 45.74 12.18 43.08 12.18Z" fill="#0D5C63" fill-opacity="1.000000" fill-rule="nonzero"/>
</svg>
