<svg width="47.316406" height="40.557129" viewBox="0 0 47.3164 40.5571" fill="none" xmlns="http://www.w3.org/2000/svg" xmlns:xlink="http://www.w3.org/1999/xlink">
	<desc>
			Created with Pixso.
	</desc>
	<defs/>
	<path id="Vector" d="M42.24 8.44L37.17 8.44L37.17 3.37C37.17 2.48 36.82 1.62 36.18 0.98C35.55 0.35 34.69 0 33.79 0L13.51 0C12.62 0 11.76 0.35 11.12 0.98C10.49 1.62 10.13 2.48 10.13 3.37L10.13 8.44L5.06 8.44C3.72 8.44 2.43 8.98 1.48 9.93C0.53 10.88 0 12.17 0 13.51L0 37.17C0 38.07 0.35 38.93 0.99 39.56C1.62 40.2 2.48 40.55 3.37 40.55L43.93 40.55C44.83 40.55 45.69 40.2 46.32 39.56C46.96 38.93 47.31 38.07 47.31 37.17L47.31 13.51C47.31 12.17 46.78 10.88 45.83 9.93C44.88 8.98 43.59 8.44 42.24 8.44ZM13.51 3.37L33.79 3.37L33.79 8.44L13.51 8.44L13.51 3.37ZM43.93 37.17L3.37 37.17L3.37 21.96L16.89 21.96L16.89 30.41L30.41 30.41L30.41 21.96L43.93 21.96L43.93 37.17ZM20.27 21.96L27.03 21.96L27.03 27.03L20.27 27.03L20.27 21.96ZM3.37 18.58L3.37 13.51C3.37 13.07 3.55 12.64 3.87 12.32C4.19 12 4.62 11.82 5.06 11.82L42.24 11.82C42.69 11.82 43.12 12 43.44 12.32C43.75 12.64 43.93 13.07 43.93 13.51L43.93 18.58L3.37 18.58Z" fill="#0D5C63" fill-opacity="1.000000" fill-rule="nonzero"/>
</svg>
