<svg width="48.000000" height="47.414551" viewBox="0 0 48 47.4146" fill="none" xmlns="http://www.w3.org/2000/svg" xmlns:xlink="http://www.w3.org/1999/xlink">
	<desc>
			Created with Pixso.
	</desc>
	<defs/>
	<path id="Vector" d="M46.2 9.48L46.2 1.89C46.2 0.84 45.34 0 44.28 0L3.71 0C2.65 0 1.79 0.84 1.79 1.89L1.79 9.48C0.79 9.54 0 10.37 0 11.37L0 19.18C-0.01 20.61 0.29 22.03 0.86 23.35C1.12 23.96 1.44 24.53 1.79 25.07L1.79 45.51C1.79 46.56 2.65 47.41 3.71 47.41L44.28 47.41C45.34 47.41 46.2 46.56 46.2 45.51L46.2 25.07C46.56 24.52 46.87 23.95 47.13 23.35C47.7 22.03 48 20.63 48 19.18L48 11.37C48 10.37 47.2 9.54 46.2 9.48ZM6.12 4.26L41.87 4.26L41.87 9.48L6.12 9.48L6.12 4.26ZM27.83 43.15L20.16 43.15L20.16 36.98L27.83 36.98L27.83 43.15ZM41.9 43.15L31.67 43.15L31.67 35.08C31.67 34.03 30.82 33.19 29.75 33.19L18.24 33.19C17.17 33.19 16.32 34.03 16.32 35.08L16.32 43.15L6.12 43.15L6.12 28.79C6.29 28.88 6.47 28.96 6.66 29.03C7.99 29.59 9.41 29.87 10.88 29.87C12.34 29.87 13.76 29.59 15.1 29.03C15.93 28.69 16.71 28.25 17.42 27.72C17.44 27.71 17.45 27.71 17.46 27.72C18.18 28.25 18.96 28.69 19.78 29.03C21.12 29.59 22.54 29.87 24.01 29.87C25.47 29.87 26.89 29.59 28.23 29.03C29.06 28.69 29.84 28.25 30.55 27.72C30.57 27.71 30.58 27.71 30.59 27.72C31.31 28.25 32.08 28.69 32.91 29.03C34.25 29.59 35.67 29.87 37.13 29.87C38.6 29.87 40.01 29.59 41.36 29.03C41.54 28.95 41.72 28.88 41.9 28.79L41.9 43.15ZM43.67 19.18C43.67 22.72 40.74 25.6 37.12 25.6C34.67 25.6 32.53 24.29 31.41 22.35C31.23 22.05 30.92 21.87 30.57 21.87L30.54 21.87C30.19 21.87 29.87 22.05 29.7 22.35C29.12 23.34 28.29 24.16 27.29 24.73C26.29 25.3 25.15 25.6 24 25.6C21.55 25.6 19.42 24.29 18.29 22.36C18.12 22.05 17.79 21.87 17.44 21.87C17.08 21.87 16.75 22.05 16.58 22.36C16 23.34 15.17 24.16 14.17 24.73C13.16 25.3 12.03 25.6 10.87 25.6C7.25 25.6 4.32 22.72 4.32 19.18L4.32 13.77C4.32 13.76 4.33 13.75 4.34 13.75L43.65 13.75C43.66 13.75 43.67 13.76 43.67 13.77L43.67 19.18Z" fill="#0D5C63" fill-opacity="1.000000" fill-rule="nonzero"/>
</svg>
