<svg width="48.000000" height="37.919922" viewBox="0 0 48 37.9199" fill="none" xmlns="http://www.w3.org/2000/svg" xmlns:xlink="http://www.w3.org/1999/xlink">
	<desc>
			Created with Pixso.
	</desc>
	<defs>
		<clipPath id="clip993_486">
			<rect id="carbon:notebook" rx="-0.500000" width="47.000000" height="36.919998" transform="translate(0.500000 0.500000)" fill="white" fill-opacity="0"/>
		</clipPath>
	</defs>
	<rect id="carbon:notebook" rx="-0.500000" width="47.000000" height="36.919998" transform="translate(0.500000 0.500000)" fill="#FFFFFF" fill-opacity="0"/>
	<g clip-path="url(#clip993_486)">
		<path id="Vector" d="M29.14 8.62L41.13 8.62L41.13 12.06L29.14 12.06L29.14 8.62Z" fill="#FFFFFF" fill-opacity="1.000000" fill-rule="nonzero"/>
		<path id="Vector" d="M29.14 17.23L41.13 17.23L41.13 20.68L29.14 20.68L29.14 17.23Z" fill="#FFFFFF" fill-opacity="1.000000" fill-rule="nonzero"/>
		<path id="Vector" d="M29.14 25.85L41.13 25.85L41.13 29.29L29.14 29.29L29.14 25.85Z" fill="#FFFFFF" fill-opacity="1.000000" fill-rule="nonzero"/>
		<path id="Vector" d="M44.56 0.01L3.43 0.01C2.52 0.01 1.65 0.37 1 1.02C0.36 1.66 0 2.54 0 3.45L0 34.46C0 35.37 0.36 36.25 1 36.89C1.65 37.54 2.52 37.9 3.43 37.9L44.56 37.9C45.47 37.9 46.34 37.54 46.99 36.89C47.63 36.25 47.99 35.37 47.99 34.46L47.99 3.45C47.99 2.54 47.63 1.66 46.99 1.02C46.34 0.37 45.47 0.01 44.56 0.01ZM3.43 3.45L22.28 3.45L22.28 34.46L3.43 34.46L3.43 3.45ZM25.71 34.46L25.71 3.45L44.56 3.45L44.57 34.46L25.71 34.46Z" fill="#FFFFFF" fill-opacity="1.000000" fill-rule="nonzero"/>
	</g>
</svg>
