<svg width="29.750977" height="29.654785" viewBox="0 0 29.751 29.6548" fill="none" xmlns="http://www.w3.org/2000/svg" xmlns:xlink="http://www.w3.org/1999/xlink">
	<desc>
			Created with Pixso.
	</desc>
	<defs/>
	<path id="Vector" d="M17.23 7.77C16.77 8.09 16.25 8.31 15.69 8.43C15.14 8.55 14.57 8.55 14.02 8.45C13.46 8.34 12.93 8.13 12.46 7.82C11.99 7.51 11.59 7.1 11.28 6.63C10.96 6.16 10.75 5.64 10.64 5.08C10.53 4.53 10.53 3.96 10.65 3.41C10.76 2.85 10.99 2.33 11.31 1.87C11.63 1.4 12.04 1 12.51 0.7C13.45 0.08 14.59 -0.14 15.7 0.08C16.8 0.3 17.76 0.95 18.39 1.88C19.01 2.82 19.24 3.96 19.03 5.06C18.81 6.17 18.16 7.14 17.23 7.77L17.23 7.77ZM16.05 2.47C15.82 2.3 15.56 2.18 15.28 2.12C15 2.06 14.71 2.05 14.43 2.1C14.15 2.15 13.89 2.26 13.65 2.41C13.41 2.57 13.2 2.77 13.05 3.01C12.89 3.25 12.78 3.51 12.72 3.79C12.67 4.07 12.67 4.36 12.73 4.64C12.79 4.92 12.91 5.18 13.07 5.42C13.24 5.65 13.45 5.85 13.69 6C14.16 6.28 14.72 6.37 15.25 6.26C15.79 6.14 16.25 5.82 16.56 5.36C16.86 4.91 16.98 4.35 16.89 3.81C16.79 3.28 16.49 2.79 16.05 2.47L16.05 2.47ZM21.6 2.53C22.21 2.12 22.95 1.93 23.68 2.01C24.42 2.08 25.11 2.41 25.63 2.93C26 3.3 26.27 3.76 26.42 4.27C26.57 4.77 26.6 5.3 26.5 5.82C26.39 6.33 26.17 6.82 25.83 7.23C25.5 7.63 25.08 7.95 24.59 8.16C24.01 8.4 23.37 8.47 22.75 8.34C22.13 8.22 21.56 7.91 21.12 7.46C20.78 7.13 20.53 6.72 20.37 6.28C20.21 5.83 20.15 5.36 20.2 4.88C20.24 4.41 20.39 3.96 20.64 3.55C20.88 3.14 21.21 2.8 21.6 2.53L21.6 2.53ZM22.62 5.95C22.82 6.15 23.09 6.26 23.37 6.26C23.51 6.26 23.65 6.23 23.78 6.18C23.9 6.13 24.02 6.05 24.12 5.95C24.22 5.85 24.3 5.73 24.35 5.6C24.4 5.47 24.43 5.34 24.43 5.2C24.43 5.06 24.4 4.92 24.35 4.79C24.29 4.66 24.22 4.55 24.12 4.45C23.92 4.25 23.65 4.13 23.37 4.13C23.23 4.13 23.09 4.16 22.96 4.21C22.83 4.26 22.72 4.34 22.62 4.44C22.52 4.54 22.44 4.66 22.39 4.79C22.33 4.92 22.31 5.06 22.31 5.2C22.31 5.48 22.42 5.75 22.62 5.95L22.62 5.95ZM4.65 24.39L8.5 24.39L8.5 26.53L4.65 26.53C3.98 26.52 3.33 26.25 2.86 25.77C2.39 25.29 2.12 24.64 2.12 23.96L2.12 20.12C1.83 20.11 1.55 20.04 1.29 19.92C1.04 19.8 0.8 19.62 0.61 19.41C0.41 19.21 0.25 18.96 0.14 18.69C0.04 18.43 -0.01 18.14 0 17.85L0 13.21C0 12.21 0.4 11.25 1.1 10.54C1.8 9.84 2.75 9.43 3.74 9.43L7.65 9.43C7.12 10.06 6.72 10.78 6.48 11.57L3.74 11.57C3.3 11.58 2.89 11.75 2.59 12.06C2.29 12.37 2.12 12.78 2.12 13.21L2.12 17.96L4.25 17.96L4.25 23.96C4.24 24.02 4.25 24.08 4.27 24.13C4.28 24.19 4.31 24.24 4.35 24.28C4.44 24.35 4.54 24.39 4.65 24.39L4.65 24.39ZM20.16 10.54C19.81 10.19 19.4 9.91 18.95 9.72C18.49 9.53 18 9.43 17.51 9.43L12.24 9.43C11.25 9.44 10.3 9.84 9.6 10.54C8.9 11.25 8.5 12.21 8.5 13.22L8.5 19.97C8.49 20.55 8.71 21.11 9.11 21.53C9.3 21.74 9.54 21.91 9.79 22.03C10.05 22.16 10.33 22.22 10.62 22.23L10.62 27.17C10.62 27.51 10.68 27.84 10.81 28.15C10.94 28.46 11.13 28.75 11.36 28.99C11.75 29.34 12.23 29.58 12.75 29.65L17 29.65C17.59 29.57 18.14 29.27 18.53 28.82C18.93 28.36 19.13 27.77 19.12 27.17L19.12 22.23C19.41 22.22 19.69 22.15 19.95 22.03C20.21 21.91 20.44 21.74 20.63 21.53C20.83 21.32 20.99 21.08 21.1 20.81C21.2 20.54 21.25 20.25 21.25 19.97L21.25 13.21C21.25 12.21 20.86 11.26 20.16 10.54L20.16 10.54ZM19.12 20.07L17 20.07L17 27.17C16.99 27.28 16.95 27.39 16.87 27.47C16.83 27.51 16.79 27.54 16.73 27.57C16.68 27.59 16.63 27.6 16.57 27.59L13.15 27.59C13.04 27.59 12.93 27.54 12.85 27.46C12.78 27.39 12.73 27.28 12.72 27.17L12.72 20.07L10.62 20.07L10.62 13.21C10.62 12.78 10.79 12.37 11.09 12.06C11.39 11.75 11.8 11.58 12.24 11.57L17.51 11.57C17.83 11.57 18.14 11.67 18.41 11.85C18.67 12.03 18.88 12.29 19 12.59C19.08 12.79 19.12 13 19.12 13.21L19.12 20.07ZM25.09 26.53L21.25 26.53L21.25 24.39L25.07 24.39C25.18 24.39 25.28 24.35 25.37 24.28C25.41 24.24 25.44 24.19 25.47 24.14C25.49 24.08 25.5 24.02 25.5 23.96L25.5 17.96L27.62 17.96L27.62 13.21C27.62 12.78 27.45 12.37 27.15 12.06C26.85 11.75 26.44 11.58 26.01 11.57L23.26 11.57C23.02 10.78 22.62 10.06 22.1 9.43L26.01 9.43C27 9.44 27.94 9.84 28.64 10.54C29.34 11.25 29.74 12.21 29.75 13.21L29.75 17.85C29.75 18.43 29.53 18.99 29.13 19.41C28.74 19.83 28.2 20.08 27.62 20.11L27.62 23.96C27.62 24.64 27.36 25.29 26.88 25.77C26.41 26.25 25.77 26.52 25.09 26.53ZM6.37 1.99C5.74 1.99 5.12 2.18 4.6 2.53C4.07 2.88 3.66 3.39 3.43 3.97C3.19 4.56 3.12 5.2 3.25 5.82C3.37 6.44 3.67 7.01 4.12 7.46C4.56 7.91 5.13 8.22 5.75 8.34C6.37 8.47 7.02 8.4 7.6 8.16C8.18 7.92 8.68 7.5 9.03 6.98C9.38 6.45 9.56 5.83 9.56 5.2C9.56 4.35 9.22 3.53 8.62 2.93C8.33 2.63 7.98 2.4 7.59 2.24C7.2 2.07 6.79 1.99 6.37 1.99ZM6.37 6.27C6.23 6.27 6.09 6.24 5.96 6.19C5.83 6.13 5.72 6.05 5.62 5.95C5.52 5.85 5.44 5.74 5.39 5.61C5.33 5.48 5.31 5.34 5.31 5.2C5.31 4.92 5.42 4.64 5.62 4.44C5.82 4.24 6.09 4.13 6.37 4.13C6.65 4.13 6.92 4.25 7.12 4.45C7.32 4.65 7.43 4.92 7.43 5.2C7.43 5.48 7.32 5.75 7.12 5.95C6.92 6.15 6.65 6.26 6.37 6.27Z" fill="#FF7B47" fill-opacity="1.000000" fill-rule="evenodd"/>
</svg>
