<svg width="32.447266" height="25.938232" viewBox="0 0 32.4473 25.9382" fill="none" xmlns="http://www.w3.org/2000/svg" xmlns:xlink="http://www.w3.org/1999/xlink">
	<desc>
			Created with Pixso.
	</desc>
	<defs/>
	<path id="Vector" d="M29.81 7.36L27.81 10.37C28.78 12.29 29.25 14.42 29.19 16.57C29.12 18.72 28.53 20.82 27.45 22.68L4.93 22.68C3.54 20.26 2.96 17.46 3.28 14.68C3.61 11.9 4.82 9.31 6.73 7.27C8.65 5.24 11.17 3.88 13.92 3.39C16.68 2.9 19.51 3.31 22.01 4.56L25.02 2.57C21.96 0.6 18.33 -0.28 14.71 0.07C11.09 0.41 7.69 1.96 5.05 4.47C2.42 6.97 0.7 10.29 0.17 13.88C-0.36 17.48 0.33 21.15 2.14 24.31C2.42 24.8 2.83 25.21 3.32 25.49C3.81 25.78 4.36 25.93 4.93 25.93L27.44 25.93C28.01 25.94 28.57 25.79 29.07 25.5C29.57 25.22 29.98 24.8 30.27 24.31C31.76 21.71 32.51 18.76 32.44 15.76C32.36 12.77 31.46 9.86 29.83 7.34L29.81 7.36ZM13.9 18.47C14.2 18.78 14.56 19.02 14.96 19.18C15.35 19.34 15.77 19.43 16.2 19.43C16.63 19.43 17.05 19.34 17.45 19.18C17.84 19.02 18.2 18.78 18.5 18.47L27.7 4.68L13.9 13.88C13.6 14.18 13.36 14.54 13.2 14.93C13.03 15.33 12.95 15.75 12.95 16.18C12.95 16.6 13.03 17.03 13.2 17.42C13.36 17.81 13.6 18.17 13.9 18.47Z" fill="#FF7B47" fill-opacity="1.000000" fill-rule="nonzero"/>
</svg>
