<svg width="22.806641" height="22.807251" viewBox="0 0 22.8066 22.8073" fill="none" xmlns="http://www.w3.org/2000/svg" xmlns:xlink="http://www.w3.org/1999/xlink">
	<desc>
			Created with Pixso.
	</desc>
	<defs/>
	<path id="Vector" d="M17.65 12.35C17.54 12.24 17.41 12.15 17.26 12.09C17.12 12.03 16.96 11.99 16.8 11.99C16.64 11.99 16.49 12.03 16.34 12.09C16.2 12.15 16.06 12.24 15.95 12.35L14.04 14.26C13.15 14 11.5 13.4 10.45 12.35C9.4 11.3 8.8 9.64 8.54 8.76L10.45 6.84C10.56 6.73 10.65 6.6 10.71 6.45C10.77 6.31 10.8 6.15 10.8 6C10.8 5.84 10.77 5.68 10.71 5.54C10.65 5.39 10.56 5.26 10.45 5.15L5.65 0.35C5.54 0.24 5.41 0.15 5.26 0.09C5.12 0.03 4.96 0 4.8 0C4.64 0 4.49 0.03 4.34 0.09C4.2 0.15 4.06 0.24 3.95 0.35L0.7 3.6C0.24 4.06 -0.01 4.68 0 5.32C0.02 7.03 0.48 12.97 5.15 17.64C9.83 22.32 15.77 22.77 17.48 22.8L17.51 22.8C18.14 22.8 18.74 22.55 19.2 22.1L22.45 18.84C22.56 18.73 22.65 18.6 22.71 18.46C22.77 18.31 22.8 18.15 22.8 18C22.8 17.84 22.77 17.68 22.71 17.54C22.65 17.39 22.56 17.26 22.45 17.15L17.65 12.35ZM17.5 20.4C16 20.38 10.88 19.97 6.85 15.95C2.81 11.91 2.42 6.77 2.4 5.3L4.8 2.89L7.9 6L6.35 7.55C6.21 7.69 6.11 7.86 6.05 8.05C5.99 8.24 5.99 8.45 6.03 8.64C6.06 8.78 6.76 12.05 8.75 14.04C10.74 16.04 14.02 16.74 14.15 16.77C14.35 16.81 14.55 16.8 14.74 16.75C14.93 16.69 15.11 16.59 15.25 16.44L16.8 14.89L19.9 18L17.5 20.4Z" fill="#8EC2F2" fill-opacity="1.000000" fill-rule="nonzero"/>
</svg>
