<svg width="24.000000" height="29.999390" viewBox="0 0 24 29.9994" fill="none" xmlns="http://www.w3.org/2000/svg" xmlns:xlink="http://www.w3.org/1999/xlink">
	<desc>
			Created with Pixso.
	</desc>
	<defs/>
	<path id="Vector" d="M12 17.99C15.3 17.99 18 15.3 18 11.99C18 8.69 15.3 6 12 6C8.69 6 6 8.69 6 11.99C6 15.3 8.69 17.99 12 17.99ZM12 9C13.65 9 15 10.34 15 11.99C15 13.65 13.65 14.99 12 14.99C10.34 14.99 9 13.65 9 11.99C9 10.34 10.34 9 12 9Z" fill="#8EC2F2" fill-opacity="1.000000" fill-rule="nonzero"/>
	<path id="Vector" d="M11.12 29.72C11.38 29.9 11.68 29.99 12 29.99C12.31 29.99 12.61 29.9 12.87 29.72C13.32 29.39 24.04 21.65 24 11.99C24 5.38 18.61 0 12 0C5.38 0 0 5.38 0 11.99C-0.05 21.65 10.67 29.39 11.12 29.72ZM12 3C16.96 3 21 7.03 21 12C21.03 18.66 14.41 24.64 12 26.6C9.58 24.64 2.96 18.66 3 11.99C3 7.03 7.03 3 12 3Z" fill="#8EC2F2" fill-opacity="1.000000" fill-rule="nonzero"/>
</svg>
