<svg width="23.972656" height="24.961304" viewBox="0 0 23.9727 24.9613" fill="none" xmlns="http://www.w3.org/2000/svg" xmlns:xlink="http://www.w3.org/1999/xlink">
	<desc>
			Created with Pixso.
	</desc>
	<defs/>
	<path id="Vector" d="M23.69 0.3C23.56 0.16 23.38 0.06 23.2 0.02C23.01 -0.02 22.82 -0.01 22.64 0.06L0.64 8.38C0.45 8.45 0.29 8.59 0.17 8.76C0.06 8.93 0 9.14 0 9.35C0 9.56 0.06 9.77 0.17 9.94C0.29 10.12 0.45 10.25 0.64 10.32L10.24 14.32L14.08 24.3C14.15 24.49 14.28 24.65 14.44 24.77C14.6 24.89 14.79 24.95 14.98 24.96C15.18 24.95 15.38 24.88 15.54 24.76C15.71 24.64 15.83 24.47 15.9 24.27L23.9 1.39C23.97 1.21 23.99 1.01 23.95 0.81C23.91 0.62 23.82 0.44 23.69 0.3ZM14.98 21L12.19 13.72L16.98 8.74L15.57 7.28L10.74 12.3L3.78 9.36L21.31 2.77L14.98 21Z" fill="#8EC2F2" fill-opacity="1.000000" fill-rule="nonzero"/>
</svg>
