<svg width="72.000000" height="72.002930" viewBox="0 0 72 72.0029" fill="none" xmlns="http://www.w3.org/2000/svg" xmlns:xlink="http://www.w3.org/1999/xlink">
	<desc>
			Created with Pixso.
	</desc>
	<defs/>
	<path id="Vector" d="M55.73 38.99C55.38 38.64 54.96 38.36 54.5 38.17C54.04 37.98 53.55 37.88 53.05 37.88C52.55 37.88 52.06 37.98 51.6 38.17C51.14 38.36 50.73 38.64 50.37 38.99L44.33 45.03C41.54 44.2 36.31 42.3 33 38.99C29.69 35.68 27.79 30.45 26.96 27.65L33 21.62C33.35 21.26 33.63 20.85 33.82 20.39C34.01 19.93 34.11 19.44 34.11 18.94C34.11 18.44 34.01 17.95 33.82 17.49C33.63 17.03 33.35 16.61 33 16.26L17.85 1.11C17.5 0.75 17.08 0.47 16.62 0.28C16.16 0.09 15.67 0 15.17 0C14.67 0 14.18 0.09 13.72 0.28C13.26 0.47 12.84 0.75 12.49 1.11L2.22 11.38C0.78 12.82 -0.03 14.8 0 16.82C0.08 22.21 1.51 40.95 16.28 55.72C31.05 70.48 49.78 71.91 55.18 72L55.29 72C57.29 72 59.18 71.21 60.61 69.78L70.88 59.5C71.24 59.15 71.52 58.73 71.71 58.28C71.9 57.82 72 57.32 72 56.83C72 56.33 71.9 55.84 71.71 55.38C71.52 54.92 71.24 54.5 70.88 54.15L55.73 38.99ZM55.25 64.42C50.52 64.34 34.35 63.07 21.63 50.35C8.88 37.6 7.65 21.37 7.57 16.74L15.17 9.14L24.96 18.94L20.07 23.84C19.62 24.28 19.29 24.83 19.11 25.43C18.93 26.04 18.91 26.67 19.04 27.29C19.13 27.73 21.35 38.06 27.64 44.35C33.93 50.64 44.26 52.86 44.7 52.95C45.31 53.08 45.95 53.06 46.55 52.88C47.16 52.7 47.71 52.37 48.15 51.92L53.05 47.02L62.85 56.82L55.25 64.42Z" fill="#0D5C63" fill-opacity="1.000000" fill-rule="nonzero"/>
</svg>
