<svg width="57.000000" height="71.000000" viewBox="0 0 57 71" fill="none" xmlns="http://www.w3.org/2000/svg" xmlns:xlink="http://www.w3.org/1999/xlink">
	<desc>
			Created with Pixso.
	</desc>
	<defs/>
	<path id="Vector" d="M28.5 42C36.49 42 43 35.72 43 28C43 20.27 36.49 14 28.5 14C20.5 14 14 20.27 14 28C14 35.72 20.5 42 28.5 42ZM28.5 21C32.49 21 35.75 24.13 35.75 28C35.75 31.86 32.49 35 28.5 35C24.5 35 21.25 31.86 21.25 28C21.25 24.13 24.5 21 28.5 21Z" fill="#FFFFFF" fill-opacity="1.000000" fill-rule="nonzero"/>
	<path id="Vector" d="M26.43 70.34C27.03 70.76 27.75 71 28.5 71C29.24 71 29.96 70.76 30.56 70.34C31.64 69.57 57.1 51.26 57 28.4C57 12.74 44.21 0 28.5 0C12.78 0 0 12.74 0 28.38C-0.11 51.26 25.35 69.57 26.43 70.34ZM28.5 7.1C40.28 7.1 49.87 16.65 49.87 28.41C49.94 44.17 34.24 58.31 28.5 62.95C22.76 58.31 7.05 44.16 7.12 28.4C7.12 16.65 16.71 7.1 28.5 7.1Z" fill="#FFFFFF" fill-opacity="1.000000" fill-rule="nonzero"/>
</svg>
