<svg width="69.146484" height="72.000000" viewBox="0 0 69.1465 72" fill="none" xmlns="http://www.w3.org/2000/svg" xmlns:xlink="http://www.w3.org/1999/xlink">
	<desc>
			Created with Pixso.
	</desc>
	<defs/>
	<path id="Vector" d="M68.34 0.87C67.95 0.47 67.46 0.19 66.93 0.06C66.39 -0.06 65.83 -0.02 65.31 0.18L1.86 24.18C1.31 24.39 0.84 24.78 0.51 25.28C0.17 25.78 0 26.37 0 26.98C0 27.59 0.17 28.19 0.51 28.69C0.84 29.19 1.31 29.57 1.86 29.79L29.55 41.31L40.62 70.11C40.83 70.65 41.19 71.12 41.65 71.45C42.11 71.79 42.66 71.98 43.22 72C43.8 71.98 44.37 71.79 44.84 71.43C45.32 71.08 45.68 70.59 45.87 70.01L68.95 4.02C69.15 3.49 69.19 2.91 69.09 2.35C68.98 1.79 68.72 1.28 68.34 0.87ZM43.22 60.6L35.17 39.6L48.99 25.23L44.92 21L30.99 35.49L10.91 27L61.48 8.01L43.22 60.6Z" fill="#0D5C63" fill-opacity="1.000000" fill-rule="nonzero"/>
</svg>
